<?xml version="1.0" encoding="UTF-8" standalone="no"?>
<!DOCTYPE svg PUBLIC "-//W3C//DTD SVG 1.1//EN"
 "http://www.w3.org/Graphics/SVG/1.1/DTD/svg11.dtd">
<!-- Generated by graphviz version 2.47.0 (20210316.0004)
 -->
<!-- Title: dbml Pages: 1 -->
<svg width="1899pt" height="1006pt"
 viewBox="0.00 0.00 1898.68 1005.77" xmlns="http://www.w3.org/2000/svg" xmlns:xlink="http://www.w3.org/1999/xlink">
<g id="graph0" class="graph" transform="scale(1 1) rotate(0) translate(4 1001.77)">
<title>dbml</title>
<!-- department -->
<g id="department" class="node">
<title>department</title>
<ellipse fill="none" stroke="black" stroke-width="0" cx="1613.49" cy="-493.11" rx="220.73" ry="214.92"/>
<polygon fill="#29235c" stroke="transparent" points="1459.49,-583.11 1459.49,-643.11 1767.49,-643.11 1767.49,-583.11 1459.49,-583.11"/>
<polygon fill="none" stroke="#29235c" points="1459.49,-583.11 1459.49,-643.11 1767.49,-643.11 1767.49,-583.11 1459.49,-583.11"/>
<text text-anchor="start" x="1470.33" y="-604.31" font-family="Helvetica,sans-Serif" font-weight="bold" font-size="32.00" fill="#ffffff"> &#160;&#160;&#160;&#160;&#160;&#160;department &#160;&#160;&#160;&#160;&#160;&#160;</text>
<polygon fill="#e7e2dd" stroke="transparent" points="1459.49,-523.11 1459.49,-583.11 1767.49,-583.11 1767.49,-523.11 1459.49,-523.11"/>
<polygon fill="none" stroke="#29235c" points="1459.49,-523.11 1459.49,-583.11 1767.49,-583.11 1767.49,-523.11 1459.49,-523.11"/>
<text text-anchor="start" x="1554.82" y="-544.31" font-family="Helvetica,sans-Serif" font-style="italic" font-size="32.00" fill="#1d71b8"> &#160;&#160;&#160;HR &#160;&#160;&#160;</text>
<polygon fill="#e7e2dd" stroke="transparent" points="1459.49,-463.11 1459.49,-523.11 1767.49,-523.11 1767.49,-463.11 1459.49,-463.11"/>
<polygon fill="none" stroke="#29235c" points="1459.49,-463.11 1459.49,-523.11 1767.49,-523.11 1767.49,-463.11 1459.49,-463.11"/>
<text text-anchor="start" x="1537.91" y="-484.31" font-family="Helvetica,sans-Serif" font-style="italic" font-size="32.00" fill="#1d71b8"> &#160;&#160;&#160;Sales &#160;&#160;&#160;</text>
<polygon fill="#e7e2dd" stroke="transparent" points="1459.49,-403.11 1459.49,-463.11 1767.49,-463.11 1767.49,-403.11 1459.49,-403.11"/>
<polygon fill="none" stroke="#29235c" points="1459.49,-403.11 1459.49,-463.11 1767.49,-463.11 1767.49,-403.11 1459.49,-403.11"/>
<text text-anchor="start" x="1548.58" y="-424.31" font-family="Helvetica,sans-Serif" font-style="italic" font-size="32.00" fill="#1d71b8"> &#160;&#160;&#160;Ops &#160;&#160;&#160;</text>
<polygon fill="#e7e2dd" stroke="transparent" points="1459.49,-343.11 1459.49,-403.11 1767.49,-403.11 1767.49,-343.11 1459.49,-343.11"/>
<polygon fill="none" stroke="#29235c" points="1459.49,-343.11 1459.49,-403.11 1767.49,-403.11 1767.49,-343.11 1459.49,-343.11"/>
<text text-anchor="start" x="1483.68" y="-364.31" font-family="Helvetica,sans-Serif" font-style="italic" font-size="32.00" fill="#1d71b8"> &#160;&#160;&#160;Development &#160;&#160;&#160;</text>
<polygon fill="none" stroke="#29235c" stroke-width="2" points="1458.49,-342.11 1458.49,-644.11 1768.49,-644.11 1768.49,-342.11 1458.49,-342.11"/>
</g>
<!-- employee_status -->
<g id="employee_status" class="node">
<title>employee_status</title>
<ellipse fill="none" stroke="black" stroke-width="0" cx="1613.49" cy="-130.11" rx="277.37" ry="130.22"/>
<polygon fill="#29235c" stroke="transparent" points="1419.49,-160.11 1419.49,-220.11 1807.49,-220.11 1807.49,-160.11 1419.49,-160.11"/>
<polygon fill="none" stroke="#29235c" points="1419.49,-160.11 1419.49,-220.11 1807.49,-220.11 1807.49,-160.11 1419.49,-160.11"/>
<text text-anchor="start" x="1430.32" y="-181.31" font-family="Helvetica,sans-Serif" font-weight="bold" font-size="32.00" fill="#ffffff"> &#160;&#160;&#160;&#160;&#160;&#160;employee_status &#160;&#160;&#160;&#160;&#160;&#160;</text>
<polygon fill="#e7e2dd" stroke="transparent" points="1419.49,-100.11 1419.49,-160.11 1807.49,-160.11 1807.49,-100.11 1419.49,-100.11"/>
<polygon fill="none" stroke="#29235c" points="1419.49,-100.11 1419.49,-160.11 1807.49,-160.11 1807.49,-100.11 1419.49,-100.11"/>
<text text-anchor="start" x="1534.36" y="-121.31" font-family="Helvetica,sans-Serif" font-style="italic" font-size="32.00" fill="#1d71b8"> &#160;&#160;&#160;Active &#160;&#160;&#160;</text>
<polygon fill="#e7e2dd" stroke="transparent" points="1419.49,-40.11 1419.49,-100.11 1807.49,-100.11 1807.49,-40.11 1419.49,-40.11"/>
<polygon fill="none" stroke="#29235c" points="1419.49,-40.11 1419.49,-100.11 1807.49,-100.11 1807.49,-40.11 1419.49,-40.11"/>
<text text-anchor="start" x="1522.8" y="-61.31" font-family="Helvetica,sans-Serif" font-style="italic" font-size="32.00" fill="#1d71b8"> &#160;&#160;&#160;Inactive &#160;&#160;&#160;</text>
<polygon fill="none" stroke="#29235c" stroke-width="2" points="1418.49,-39.11 1418.49,-221.11 1808.49,-221.11 1808.49,-39.11 1418.49,-39.11"/>
</g>
<!-- employee_department -->
<g id="employee_department" class="node">
<title>employee_department</title>
<ellipse fill="none" stroke="black" stroke-width="0" cx="330.93" cy="-763.11" rx="330.85" ry="172.57"/>
<polygon fill="#1d71b8" stroke="transparent" points="98.93,-823.11 98.93,-883.11 562.93,-883.11 562.93,-823.11 98.93,-823.11"/>
<polygon fill="none" stroke="#29235c" points="98.93,-823.11 98.93,-883.11 562.93,-883.11 562.93,-823.11 98.93,-823.11"/>
<text text-anchor="start" x="109.52" y="-844.31" font-family="Helvetica,sans-Serif" font-weight="bold" font-size="32.00" fill="#ffffff"> &#160;&#160;&#160;&#160;&#160;&#160;employee_department &#160;&#160;&#160;&#160;&#160;&#160;</text>
<polygon fill="#e7e2dd" stroke="transparent" points="98.93,-763.11 98.93,-823.11 562.93,-823.11 562.93,-763.11 98.93,-763.11"/>
<polygon fill="none" stroke="#29235c" points="98.93,-763.11 98.93,-823.11 562.93,-823.11 562.93,-763.11 98.93,-763.11"/>
<text text-anchor="start" x="109.93" y="-783.31" font-family="Helvetica,sans-Serif" font-size="32.00" fill="#29235c">employee_id &#160;&#160;&#160;</text>
<text text-anchor="start" x="415.03" y="-784.31" font-family="Helvetica,sans-Serif" font-style="italic" font-size="32.00" fill="#29235c">integer</text>
<text text-anchor="start" x="512.83" y="-784.31" font-family="Helvetica,sans-Serif" font-size="32.00" fill="#29235c"> </text>
<text text-anchor="start" x="521.73" y="-784.31" font-family="Helvetica,sans-Serif" font-weight="bold" font-size="32.00" fill="#29235c">(!)</text>
<polygon fill="#e7e2dd" stroke="transparent" points="98.93,-703.11 98.93,-763.11 562.93,-763.11 562.93,-703.11 98.93,-703.11"/>
<polygon fill="none" stroke="#29235c" points="98.93,-703.11 98.93,-763.11 562.93,-763.11 562.93,-703.11 98.93,-703.11"/>
<text text-anchor="start" x="109.93" y="-723.31" font-family="Helvetica,sans-Serif" font-size="32.00" fill="#29235c">date &#160;&#160;&#160;</text>
<text text-anchor="start" x="450.58" y="-724.31" font-family="Helvetica,sans-Serif" font-style="italic" font-size="32.00" fill="#29235c">date</text>
<text text-anchor="start" x="512.83" y="-724.31" font-family="Helvetica,sans-Serif" font-size="32.00" fill="#29235c"> </text>
<text text-anchor="start" x="521.73" y="-724.31" font-family="Helvetica,sans-Serif" font-weight="bold" font-size="32.00" fill="#29235c">(!)</text>
<polygon fill="#e7e2dd" stroke="transparent" points="98.93,-643.11 98.93,-703.11 562.93,-703.11 562.93,-643.11 98.93,-643.11"/>
<polygon fill="none" stroke="#29235c" points="98.93,-643.11 98.93,-703.11 562.93,-703.11 562.93,-643.11 98.93,-643.11"/>
<text text-anchor="start" x="109.93" y="-663.31" font-family="Helvetica,sans-Serif" font-size="32.00" fill="#29235c">department &#160;&#160;&#160;</text>
<text text-anchor="start" x="351.01" y="-664.31" font-family="Helvetica,sans-Serif" font-style="italic" font-size="32.00" fill="#29235c">department</text>
<text text-anchor="start" x="512.83" y="-664.31" font-family="Helvetica,sans-Serif" font-size="32.00" fill="#29235c"> </text>
<text text-anchor="start" x="521.73" y="-664.31" font-family="Helvetica,sans-Serif" font-weight="bold" font-size="32.00" fill="#29235c">(!)</text>
<polygon fill="none" stroke="#29235c" stroke-width="2" points="97.93,-642.11 97.93,-884.11 563.93,-884.11 563.93,-642.11 97.93,-642.11"/>
</g>
<!-- employee_department&#45;&gt;department -->
<g id="edge3" class="edge">
<title>employee_department:e&#45;&gt;department:w</title>
<path fill="none" stroke="#29235c" stroke-width="3" d="M563.93,-673.11C774.3,-673.11 529.36,-345.07 697.85,-219.11 912.3,-58.78 1078.49,-69.14 1300.31,-219.11 1378.47,-271.95 1364.14,-613.11 1458.49,-613.11"/>
</g>
<!-- employee -->
<g id="employee" class="node">
<title>employee</title>
<ellipse fill="none" stroke="black" stroke-width="0" cx="999.08" cy="-613.11" rx="301.46" ry="384.83"/>
<polygon fill="#1d71b8" stroke="transparent" points="788.08,-823.11 788.08,-883.11 1210.08,-883.11 1210.08,-823.11 788.08,-823.11"/>
<polygon fill="none" stroke="#29235c" points="788.08,-823.11 788.08,-883.11 1210.08,-883.11 1210.08,-823.11 788.08,-823.11"/>
<text text-anchor="start" x="867.48" y="-844.31" font-family="Helvetica,sans-Serif" font-weight="bold" font-size="32.00" fill="#ffffff"> &#160;&#160;&#160;&#160;&#160;&#160;employee &#160;&#160;&#160;&#160;&#160;&#160;</text>
<polygon fill="#e7e2dd" stroke="transparent" points="788.08,-763.11 788.08,-823.11 1210.08,-823.11 1210.08,-763.11 788.08,-763.11"/>
<polygon fill="none" stroke="#29235c" points="788.08,-763.11 788.08,-823.11 1210.08,-823.11 1210.08,-763.11 788.08,-763.11"/>
<text text-anchor="start" x="799.08" y="-784.31" font-family="Helvetica,sans-Serif" font-weight="bold" font-size="32.00" fill="#29235c">id</text>
<text text-anchor="start" x="823.97" y="-784.31" font-family="Helvetica,sans-Serif" font-size="32.00" fill="#29235c"> &#160;&#160;&#160;</text>
<text text-anchor="start" x="1062.19" y="-784.31" font-family="Helvetica,sans-Serif" font-style="italic" font-size="32.00" fill="#29235c">integer</text>
<text text-anchor="start" x="1159.99" y="-784.31" font-family="Helvetica,sans-Serif" font-size="32.00" fill="#29235c"> </text>
<text text-anchor="start" x="1168.88" y="-784.31" font-family="Helvetica,sans-Serif" font-weight="bold" font-size="32.00" fill="#29235c">(!)</text>
<polygon fill="#e7e2dd" stroke="transparent" points="788.08,-703.11 788.08,-763.11 1210.08,-763.11 1210.08,-703.11 788.08,-703.11"/>
<polygon fill="none" stroke="#29235c" points="788.08,-703.11 788.08,-763.11 1210.08,-763.11 1210.08,-703.11 788.08,-703.11"/>
<text text-anchor="start" x="799.08" y="-723.31" font-family="Helvetica,sans-Serif" font-size="32.00" fill="#29235c">name &#160;&#160;&#160;</text>
<text text-anchor="start" x="978.64" y="-724.31" font-family="Helvetica,sans-Serif" font-style="italic" font-size="32.00" fill="#29235c">varchar(255)</text>
<text text-anchor="start" x="1159.99" y="-724.31" font-family="Helvetica,sans-Serif" font-size="32.00" fill="#29235c"> </text>
<text text-anchor="start" x="1168.88" y="-724.31" font-family="Helvetica,sans-Serif" font-weight="bold" font-size="32.00" fill="#29235c">(!)</text>
<polygon fill="#e7e2dd" stroke="transparent" points="788.08,-643.11 788.08,-703.11 1210.08,-703.11 1210.08,-643.11 788.08,-643.11"/>
<polygon fill="none" stroke="#29235c" points="788.08,-643.11 788.08,-703.11 1210.08,-703.11 1210.08,-643.11 788.08,-643.11"/>
<text text-anchor="start" x="799.08" y="-663.31" font-family="Helvetica,sans-Serif" font-size="32.00" fill="#29235c">hire_date &#160;&#160;&#160;</text>
<text text-anchor="start" x="1097.73" y="-664.31" font-family="Helvetica,sans-Serif" font-style="italic" font-size="32.00" fill="#29235c">date</text>
<text text-anchor="start" x="1159.99" y="-664.31" font-family="Helvetica,sans-Serif" font-size="32.00" fill="#29235c"> </text>
<text text-anchor="start" x="1168.88" y="-664.31" font-family="Helvetica,sans-Serif" font-weight="bold" font-size="32.00" fill="#29235c">(!)</text>
<polygon fill="#e7e2dd" stroke="transparent" points="788.08,-583.11 788.08,-643.11 1210.08,-643.11 1210.08,-583.11 788.08,-583.11"/>
<polygon fill="none" stroke="#29235c" points="788.08,-583.11 788.08,-643.11 1210.08,-643.11 1210.08,-583.11 788.08,-583.11"/>
<text text-anchor="start" x="799.08" y="-603.31" font-family="Helvetica,sans-Serif" font-size="32.00" fill="#29235c">department &#160;&#160;&#160;</text>
<text text-anchor="start" x="998.16" y="-604.31" font-family="Helvetica,sans-Serif" font-style="italic" font-size="32.00" fill="#29235c">department</text>
<text text-anchor="start" x="1159.99" y="-604.31" font-family="Helvetica,sans-Serif" font-size="32.00" fill="#29235c"> </text>
<text text-anchor="start" x="1168.88" y="-604.31" font-family="Helvetica,sans-Serif" font-weight="bold" font-size="32.00" fill="#29235c">(!)</text>
<polygon fill="#e7e2dd" stroke="transparent" points="788.08,-523.11 788.08,-583.11 1210.08,-583.11 1210.08,-523.11 788.08,-523.11"/>
<polygon fill="none" stroke="#29235c" points="788.08,-523.11 788.08,-583.11 1210.08,-583.11 1210.08,-523.11 788.08,-523.11"/>
<text text-anchor="start" x="799.08" y="-543.31" font-family="Helvetica,sans-Serif" font-size="32.00" fill="#29235c">phone &#160;&#160;&#160;</text>
<text text-anchor="start" x="1122.61" y="-544.31" font-family="Helvetica,sans-Serif" font-style="italic" font-size="32.00" fill="#29235c">jsonb</text>
<polygon fill="#e7e2dd" stroke="transparent" points="788.08,-463.11 788.08,-523.11 1210.08,-523.11 1210.08,-463.11 788.08,-463.11"/>
<polygon fill="none" stroke="#29235c" points="788.08,-463.11 788.08,-523.11 1210.08,-523.11 1210.08,-463.11 788.08,-463.11"/>
<text text-anchor="start" x="799.08" y="-483.31" font-family="Helvetica,sans-Serif" font-size="32.00" fill="#29235c">address &#160;&#160;&#160;</text>
<text text-anchor="start" x="1122.61" y="-484.31" font-family="Helvetica,sans-Serif" font-style="italic" font-size="32.00" fill="#29235c">jsonb</text>
<polygon fill="#e7e2dd" stroke="transparent" points="788.08,-403.11 788.08,-463.11 1210.08,-463.11 1210.08,-403.11 788.08,-403.11"/>
<polygon fill="none" stroke="#29235c" points="788.08,-403.11 788.08,-463.11 1210.08,-463.11 1210.08,-403.11 788.08,-403.11"/>
<text text-anchor="start" x="799.08" y="-423.31" font-family="Helvetica,sans-Serif" font-size="32.00" fill="#29235c">picture &#160;&#160;&#160;</text>
<text text-anchor="start" x="1147.51" y="-424.31" font-family="Helvetica,sans-Serif" font-style="italic" font-size="32.00" fill="#29235c">text</text>
<polygon fill="#e7e2dd" stroke="transparent" points="788.08,-343.11 788.08,-403.11 1210.08,-403.11 1210.08,-343.11 788.08,-343.11"/>
<polygon fill="none" stroke="#29235c" points="788.08,-343.11 788.08,-403.11 1210.08,-403.11 1210.08,-343.11 788.08,-343.11"/>
<text text-anchor="start" x="798.61" y="-363.31" font-family="Helvetica,sans-Serif" font-size="32.00" fill="#29235c">status &#160;&#160;&#160;</text>
<text text-anchor="start" x="918.61" y="-364.31" font-family="Helvetica,sans-Serif" font-style="italic" font-size="32.00" fill="#29235c">employee_status</text>
<text text-anchor="start" x="1160.46" y="-364.31" font-family="Helvetica,sans-Serif" font-size="32.00" fill="#29235c"> </text>
<text text-anchor="start" x="1169.35" y="-364.31" font-family="Helvetica,sans-Serif" font-weight="bold" font-size="32.00" fill="#29235c">(!)</text>
<polygon fill="none" stroke="#29235c" stroke-width="2" points="787.08,-342.11 787.08,-884.11 1211.08,-884.11 1211.08,-342.11 787.08,-342.11"/>
</g>
<!-- employee_department&#45;&gt;employee -->
<!-- employee_department&#45;&gt;employee -->
<g id="edge2" class="edge">
<title>employee_department:e&#45;&gt;employee:w</title>
<path fill="none" stroke="#29235c" stroke-width="3" d="M563.93,-793.11C659.62,-793.11 686.06,-793.11 776.89,-793.11"/>
<polygon fill="#29235c" stroke="#29235c" stroke-width="3" points="777.08,-796.61 787.08,-793.11 777.08,-789.61 777.08,-796.61"/>
<text text-anchor="middle" x="778.19" y="-802.71" font-family="Helvetica,sans-Serif" font-size="32.00" fill="#29235c">1</text>
<text text-anchor="middle" x="570.15" y="-802.71" font-family="Helvetica,sans-Serif" font-size="32.00" fill="#29235c">*</text>
</g>
<!-- employee&#45;&gt;department -->
<g id="edge4" class="edge">
<title>employee:e&#45;&gt;department:w</title>
<path fill="none" stroke="#29235c" stroke-width="3" d="M1211.08,-613.11C1321.04,-613.11 1348.53,-613.11 1458.49,-613.11"/>
</g>
<!-- employee&#45;&gt;employee_status -->
<g id="edge5" class="edge">
<title>employee:e&#45;&gt;employee_status:w</title>
<path fill="none" stroke="#29235c" stroke-width="3" d="M1211.08,-373.11C1334.01,-373.11 1295.56,-190.11 1418.49,-190.11"/>
</g>
</g>
</svg>
